<?xml version="1.0" encoding="UTF-8"?>
<svg version="1.1" xmlns="http://www.w3.org/2000/svg" width="512" height="512">
<path d="M0 0 C1.05088613 -0.00551503 1.05088613 -0.00551503 2.12300229 -0.01114148 C4.45255362 -0.02208684 6.78206022 -0.02600641 9.1116333 -0.02983093 C10.78937926 -0.03610239 12.46712384 -0.04274978 14.14486694 -0.04974365 C19.63801115 -0.07070121 25.13115537 -0.08113664 30.62432861 -0.09111023 C32.52074447 -0.09516056 34.41716018 -0.09927757 36.31357574 -0.10346031 C45.22336138 -0.12249187 54.13313882 -0.13672848 63.04294086 -0.14507228 C73.30644991 -0.15484444 83.56974329 -0.18117201 93.83317637 -0.22157317 C101.7816208 -0.25178177 109.73000354 -0.26654555 117.67850423 -0.26985329 C122.41899413 -0.27219784 127.15925308 -0.28108103 131.89968109 -0.30631447 C136.36165761 -0.32968423 140.82325252 -0.33379285 145.28527451 -0.32355309 C146.91580606 -0.32305982 148.54635699 -0.32931814 150.17683029 -0.34310913 C161.94946575 -0.43705462 172.45102235 0.66572708 181.92120361 8.38935852 C189.28012862 15.65145556 193.01770618 24.86261146 193.17095947 35.13594055 C193.16072754 35.92339661 193.15049561 36.71085266 193.13995361 37.52217102 C193.13165527 38.35216614 193.12335693 39.18216125 193.11480713 40.03730774 C192.81781994 50.86201511 189.39521681 59.39407242 181.70245361 67.14717102 C174.99655984 72.59132869 168.73797109 75.39002059 160.00091553 75.41218567 C159.35229852 75.41656694 158.70368152 75.42094821 158.03540945 75.42546225 C155.87552462 75.43772196 153.71588469 75.43597824 151.55596924 75.4342804 C150.00146121 75.44030889 148.44695644 75.44723422 146.89245605 75.45498657 C143.54984076 75.46985283 140.20728497 75.47861927 136.86463928 75.48269653 C131.56747525 75.48943052 126.27043759 75.51121219 120.97332764 75.53523254 C109.71639934 75.58416384 98.45944411 75.61646382 87.20245361 75.64717102 C75.07524177 75.68031131 62.9480795 75.71646532 50.82094336 75.77130175 C45.56790696 75.79449576 40.3149578 75.8083528 35.06187534 75.81479645 C31.77469232 75.8207874 28.48757879 75.83492915 25.20043182 75.85114098 C23.69051275 75.85695597 22.18057646 75.8595021 20.67064667 75.85830116 C1.31718309 75.84730892 -16.15461157 78.13381154 -30.98504639 91.58467102 C-32.12973389 92.85310852 -32.12973389 92.85310852 -33.29754639 94.14717102 C-34.00137451 94.86260071 -34.00137451 94.86260071 -34.71942139 95.59248352 C-47.26429446 108.97799242 -48.7544247 126.18854192 -48.70159912 143.63301086 C-48.70731443 145.35441528 -48.71428313 147.07581591 -48.72239685 148.79721069 C-48.74021578 153.43578532 -48.7391812 158.07416962 -48.73345447 162.71276808 C-48.73034604 166.60155881 -48.73647337 170.49031386 -48.74249321 174.37909949 C-48.75650001 183.56158632 -48.75500944 192.74398005 -48.74359131 201.9264679 C-48.73211532 211.3633505 -48.74618587 220.79994873 -48.77298778 230.23679388 C-48.79522105 238.37312441 -48.801765 246.50936617 -48.79591137 254.64572489 C-48.79255861 259.49018269 -48.79484401 264.33445831 -48.8121624 269.17889023 C-48.82775158 273.73784275 -48.82354485 278.29637752 -48.80485725 282.85531425 C-48.80120416 284.51640817 -48.80418252 286.17753389 -48.81474304 287.83859825 C-48.90718784 303.59748746 -46.42698425 316.83677378 -37.29754639 330.14717102 C-36.85926514 330.80072571 -36.42098389 331.4542804 -35.96942139 332.12763977 C-27.48597083 343.29410933 -13.51042971 349.44442888 -0.02323151 351.6930809 C3.63354676 352.13877259 7.13894807 352.27858245 10.82122803 352.28761292 C11.84337945 352.2920696 11.84337945 352.2920696 12.8861804 352.29661632 C15.15112277 352.30523154 17.41601184 352.30680545 19.68096924 352.30830383 C21.31281648 352.31293724 22.94466264 352.31796259 24.57650757 352.323349 C28.9984464 352.33642792 33.42037007 352.34290956 37.84232521 352.34735966 C40.61125006 352.35029872 43.38017084 352.35440516 46.14909363 352.35886383 C54.83036545 352.3725292 63.51162789 352.38219958 72.19290972 352.38606572 C82.18013868 352.39053903 92.16723029 352.40805717 102.15441751 352.43706632 C109.89570849 352.45876324 117.63696105 352.46877432 125.37828207 352.47010684 C129.99142342 352.47114949 134.60443549 352.47694083 139.21754456 352.49492645 C143.56458084 352.51154547 147.91139259 352.51349644 152.25844955 352.50478745 C153.84214255 352.50402431 155.42584832 352.50826264 157.00951004 352.5182457 C176.30059794 352.63258868 194.05227766 349.56803056 208.51885986 335.60029602 C219.68759492 323.05295145 223.9763568 309.14973263 224.01104736 292.68232727 C224.03620109 290.47854851 224.06159921 288.27477253 224.08721924 286.07099915 C224.11593471 282.63716824 224.13998796 279.20338535 224.15875244 275.76948547 C224.18052855 272.42768983 224.21996467 269.08643347 224.26104736 265.74482727 C224.26116318 264.73098465 224.26127899 263.71714203 224.26139832 262.6725769 C224.41939906 251.16810665 227.43591143 241.43858044 235.67120361 233.17060852 C244.73106704 225.45659437 255.13141179 223.2423201 266.80010986 223.76826477 C277.61890659 224.81873853 286.41281151 228.90632134 293.48370361 237.24873352 C299.83935932 246.06564805 301.16055754 255.2734783 301.06573486 265.93623352 C301.06623337 267.0383316 301.06673187 268.14042969 301.06724548 269.27592468 C301.06491725 271.59712027 301.05526324 273.91831898 301.03863525 276.23945618 C301.01515933 279.74148379 301.01807064 283.24274142 301.02471924 286.74482727 C301.00639877 302.23602058 300.6053811 317.36195423 296.20245361 332.33467102 C295.94818604 333.20486877 295.69391846 334.07506653 295.4319458 334.97163391 C289.12162413 355.45079482 278.46943445 372.73382402 263.70245361 388.14717102 C262.49202393 389.46974915 262.49202393 389.46974915 261.25714111 390.81904602 C241.04433941 412.17824543 209.43713468 427.23914441 179.8984499 428.2813921 C178.50105483 428.2906839 177.10361793 428.29470336 175.70619202 428.29434204 C174.93028031 428.29801873 174.15436859 428.30169542 173.35494441 428.30548352 C170.77000896 428.31644502 168.18511382 428.32035141 165.60015869 428.32417297 C163.7399737 428.33044366 161.87978995 428.33709099 160.01960754 428.34408569 C153.92040875 428.36506865 147.8212099 428.37548747 141.72198486 428.38545227 C139.6140358 428.38950295 137.50608686 428.39361996 135.39813805 428.39780235 C125.48506786 428.41684684 115.57200506 428.43107553 105.65892011 428.43941432 C94.26071022 428.44916327 82.86269574 428.47542456 71.46455461 428.51591522 C62.62765437 428.54621638 53.79080967 428.56089666 44.95385855 428.56419533 C39.68938901 428.56653121 34.42512835 428.57529818 29.1607151 428.60065651 C24.19558661 428.62418644 19.23080083 428.62807195 14.26563072 428.61789513 C12.45988693 428.61740554 10.65412481 428.62355185 8.84843445 428.63745117 C-27.43915143 428.90076176 -60.39221009 415.43754384 -86.29754639 390.14717102 C-87.00137451 389.5052179 -87.70520264 388.86326477 -88.43035889 388.20185852 C-108.67077945 369.27255831 -120.65018318 341.24988528 -124.29754639 314.14717102 C-124.38422955 313.50469327 -124.4709127 312.86221552 -124.56022263 312.20026875 C-125.55112363 303.75973495 -125.45338585 295.30576287 -125.4586792 286.82173157 C-125.46331567 285.08095191 -125.46834143 283.34017326 -125.47372437 281.59939575 C-125.48677497 276.89211681 -125.49327951 272.18485208 -125.49773502 267.4775579 C-125.50067911 264.52615215 -125.50478645 261.57475016 -125.5092392 258.62334633 C-125.52289801 249.3590143 -125.53257121 240.09469102 -125.53644109 230.83034962 C-125.54091077 220.19289857 -125.55841475 209.55557672 -125.58744168 198.91816491 C-125.60918247 190.65952669 -125.61915201 182.40092447 -125.62048221 174.14225799 C-125.62152188 169.22715982 -125.627248 164.31218334 -125.64530182 159.39711571 C-125.80968929 111.90121947 -119.70225166 74.14466028 -86.29754639 38.14717102 C-85.76903076 37.55291321 -85.24051514 36.9586554 -84.69598389 36.34638977 C-64.05517564 14.1707522 -29.99665344 0.10274547 0 0 Z " fill="#182C74" transform="translate(137.29754638671875,52.85282897949219)"/>
<path d="M0 0 C9.41413467 6.58809424 16.39479263 15.73311865 18.53125 27.140625 C19.77315953 39.18900101 16.64431008 48.80432802 9.04296875 58.15625 C6.50925122 61.16622095 3.89210571 64.09740949 1.26074219 67.02197266 C-0.86987375 69.42830702 -2.88099087 71.92512587 -4.89453125 74.4296875 C-8.44971029 78.81120545 -12.17472662 82.99679431 -15.97265625 87.16796875 C-18.20837658 89.68119982 -20.34080807 92.25280229 -22.45703125 94.8671875 C-26.61787894 100.00663178 -30.92437614 105.00294902 -35.26635742 109.98876953 C-38.7986312 114.04752007 -42.30135981 118.12854032 -45.76953125 122.2421875 C-49.56117614 126.73951112 -53.37431427 131.21730549 -57.20703125 135.6796875 C-61.05842112 140.16462328 -64.89329959 144.66268531 -68.70703125 149.1796875 C-72.50226852 153.67377803 -76.31494055 158.15233017 -80.14453125 162.6171875 C-80.64122314 163.19637939 -81.13791504 163.77557129 -81.6496582 164.37231445 C-84.20213543 167.34724791 -86.75773107 170.3194583 -89.31640625 173.2890625 C-93.90539035 178.62089384 -98.46580959 183.96298421 -102.89453125 189.4296875 C-106.44971029 193.81120545 -110.17472662 197.99679431 -113.97265625 202.16796875 C-116.20837658 204.68119982 -118.34080807 207.25280229 -120.45703125 209.8671875 C-124.61787894 215.00663178 -128.92437614 220.00294902 -133.26635742 224.98876953 C-136.7986312 229.04752007 -140.30135981 233.12854032 -143.76953125 237.2421875 C-147.56117614 241.73951112 -151.37431427 246.21730549 -155.20703125 250.6796875 C-158.60220414 254.63335952 -161.98917449 258.59337635 -165.35131836 262.57519531 C-166.25411542 263.64365962 -167.15857353 264.71072266 -168.06469727 265.77636719 C-170.45500378 268.58949844 -172.81540205 271.42182418 -175.140625 274.2890625 C-188.17642184 290.20350029 -203.4217077 300.17543165 -224.20703125 302.6796875 C-243.72712321 304.2825103 -262.1333163 299.40285176 -277.20703125 286.6796875 C-282.96745724 281.33239084 -288.36891633 275.67397926 -293.47265625 269.6953125 C-295.46615706 267.37854129 -297.52257513 265.12548766 -299.58203125 262.8671875 C-302.63561992 259.49027768 -305.5513233 256.04751618 -308.39453125 252.4921875 C-313.30107856 246.42152088 -318.63903742 240.78899835 -323.98828125 235.109375 C-327.94546548 230.90599609 -331.7375288 226.58291886 -335.47753906 222.18603516 C-336.96945644 220.43285329 -338.46309157 218.68114632 -339.95703125 216.9296875 C-340.46975586 216.32664795 -340.98248047 215.7236084 -341.51074219 215.10229492 C-344.4816634 211.62709648 -347.52346665 208.24670647 -350.66723633 204.92749023 C-360.39107351 194.6331432 -365.784343 185.44303366 -365.51953125 171.02734375 C-364.38750275 158.90048844 -357.61113372 150.16054732 -348.6484375 142.44140625 C-339.51535038 135.85097058 -328.52038144 134.44073814 -317.5859375 136.0703125 C-306.79865879 138.76281727 -299.04179987 146.31245955 -292.20703125 154.6796875 C-290.71502565 156.35351457 -289.21458763 158.0198527 -287.70703125 159.6796875 C-284.4399879 163.29992473 -281.21182349 166.94952315 -278.01171875 170.62890625 C-275.97744984 172.94057547 -273.90480815 175.2150018 -271.83203125 177.4921875 C-268.77844258 180.86909732 -265.8627392 184.31185882 -263.01953125 187.8671875 C-258.66794961 193.25121821 -253.99768117 198.28983575 -249.23754883 203.31396484 C-246.10584345 206.62224282 -243.09343719 209.96435801 -240.20703125 213.4921875 C-237.5321044 216.57036966 -235.41055492 218.22278275 -231.20703125 218.6796875 C-227.35125341 216.76427682 -224.77863377 214.39840444 -221.95703125 211.1796875 C-221.17328125 210.28636719 -220.38953125 209.39304688 -219.58203125 208.47265625 C-216.57047706 204.93110814 -213.63662432 201.3313372 -210.7109375 197.71875 C-206.20206244 192.24619961 -201.51337663 186.92833576 -196.85791016 181.58056641 C-189.95683127 173.63442618 -183.14068157 165.61514876 -176.35107422 157.57373047 C-172.48596588 152.99958041 -168.58886278 148.45338849 -164.6875 143.91015625 C-161.34410827 140.01385219 -158.01910643 136.10263533 -154.70703125 132.1796875 C-150.39177925 127.06853888 -146.04536467 121.98499608 -141.6875 116.91015625 C-138.34410827 113.01385219 -135.01910643 109.10263533 -131.70703125 105.1796875 C-127.39177925 100.06853888 -123.04536467 94.98499608 -118.6875 89.91015625 C-115.34410827 86.01385219 -112.01910643 82.10263533 -108.70703125 78.1796875 C-104.39177925 73.06853888 -100.04536467 67.98499608 -95.6875 62.91015625 C-92.34410827 59.01385219 -89.01910643 55.10263533 -85.70703125 51.1796875 C-81.39177925 46.06853888 -77.04536467 40.98499608 -72.6875 35.91015625 C-69.79984708 32.54495866 -66.92299968 29.17114197 -64.06176758 25.78344727 C-63.16166945 24.71789588 -62.26047158 23.65327245 -61.3581543 22.58959961 C-58.93192346 19.7289762 -56.52298571 16.85568668 -54.1328125 13.96484375 C-39.84004255 -3.21020078 -21.76054384 -13.01781207 0 0 Z " fill="#182C74" transform="translate(481.20703125,36.3203125)"/>
</svg>
